<svg width="500" height="503" viewBox="0 0 500 503" fill="none" xmlns="http://www.w3.org/2000/svg">
<path fill-rule="evenodd" clip-rule="evenodd" d="M188.851 3.53637C243.956 17.51 441.985 -16.375 472.963 17.51C506.123 53.7818 493.528 198.653 494.689 255.67C495.885 314.355 511.85 428.105 481.876 471.271C450.681 516.196 230 509 150.391 471.271C78.5 431.5 81.726 406.221 60.8177 355.989C45.7479 319.784 59.8175 277.418 52.9129 237.083C41.462 170.188 -22.2618 103.722 8.13898 48.2474C37.1861 -4.75676 139.769 -3.61353 188.851 3.53637Z" fill="#ED3833"/>
<path fill-rule="evenodd" clip-rule="evenodd" d="M188.851 3.53637C243.956 17.51 441.985 -16.375 472.963 17.51C506.123 53.7818 493.528 198.653 494.689 255.67C495.885 314.355 511.85 428.105 481.876 471.271C450.681 516.196 230 509 150.391 471.271C78.5 431.5 81.726 406.221 60.8177 355.989C45.7479 319.784 59.8175 277.418 52.9129 237.083C41.462 170.188 -22.2618 103.722 8.13898 48.2474C37.1861 -4.75676 139.769 -3.61353 188.851 3.53637Z" fill="#ED3833"/>
</svg>
