<svg width="53" height="17" viewBox="0 0 53 17" fill="none" xmlns="http://www.w3.org/2000/svg">
<path fill-rule="evenodd" clip-rule="evenodd" d="M50.6648 10.9819C48.3297 10.9819 47.4805 12.4462 47.4805 13.7274C47.4805 15.0087 48.3297 16.4729 50.6648 16.4729C52.0638 16.4729 53 15.5578 53 15.5578L52.1508 14.8256C52.1508 14.8256 51.7263 15.3747 50.6648 15.3747C48.9665 15.3747 48.7543 14.2765 48.7543 13.7274C48.7543 13.1783 48.9665 12.0801 50.6648 12.0801C51.7263 12.0801 52.1508 12.6292 52.1508 12.6292L53 11.8971C53 11.8971 52.0638 10.9819 50.6648 10.9819Z" fill="#ED322C"/>
<path d="M42.1877 14.7834C42.1877 14.9946 41.9821 16.4729 44.8598 16.4729C46.0932 16.4729 46.9154 15.8393 46.9154 15.8393L46.5043 15.2058C46.5043 15.2058 45.8877 15.6282 44.8598 15.6282C44.0377 15.6282 43.4211 15.4483 43.4211 14.7834C43.4211 14.1498 44.0377 14.1498 46.0928 14.1498H46.0932V13.305C44.4488 13.305 43.6263 13.0939 43.6265 12.4603C43.6266 12.2491 43.832 11.8267 44.8598 11.8267C45.8877 11.8267 46.5043 12.2491 46.5043 12.2491L46.9153 11.4043C46.9153 11.4043 46.0932 10.982 44.8598 10.9819C43.2153 10.9819 42.3933 11.5276 42.3933 12.4603C42.3933 13.3051 43.2154 13.5162 43.2154 13.5162C43.2154 13.5162 42.1875 13.7274 42.1877 14.7834Z" fill="#ED322C"/>
<path fill-rule="evenodd" clip-rule="evenodd" d="M41.0017 9.02087H39.4248V11.4012C38.9923 11.1309 38.4574 10.982 37.8478 10.982C36.1919 10.982 35.2852 12.0802 35.2852 13.7275C35.2852 15.3748 36.1919 16.473 37.8478 16.473C38.4574 16.473 38.9923 16.3241 39.4248 16.0537V16.4729H41.0017V9.02087ZM37.8478 12.1586C37.0593 12.1586 36.665 12.7469 36.665 13.7274C36.665 14.7079 37.0593 15.2963 37.8478 15.2963C38.8334 15.2963 39.4247 14.904 39.4247 13.7274C39.4247 12.5508 38.8334 12.1586 37.8478 12.1586Z" fill="#ED322C"/>
<path d="M31.9341 15.4924C31.9341 14.9041 32.3283 14.5118 32.9197 14.5118C33.511 14.5118 33.9053 14.9041 33.9053 15.4924C33.9053 16.0807 33.511 16.4729 32.9197 16.4729C32.3283 16.4729 31.9341 16.0807 31.9341 15.4924Z" fill="#ED322C"/>
<path d="M19.121 2.7455C13.4044 2.7455 7.09647 5.29488 7.09647 5.29488C7.09647 5.29488 13.2073 1.60988e-05 22.275 0C28.3858 0 33.9053 3.52992 33.9053 8.6287C33.9053 13.7275 27.5973 16.2769 27.5973 16.2769C27.5973 16.2769 29.7657 14.9041 29.7657 10.982C29.7657 10.982 29.7657 2.7455 19.121 2.7455Z" fill="#F9AC39"/>
<path d="M31.9341 15.4925C31.9341 14.9042 32.3283 14.512 32.9197 14.512C33.511 14.512 33.9053 14.9042 33.9053 15.4925C33.9053 16.0808 33.511 16.473 32.9197 16.473C32.3283 16.473 31.9341 16.0808 31.9341 15.4925Z" fill="#ED322C"/>
<path d="M0 5.88318V7.84425H1.97124V14.5119H0V16.4729H5.91371V14.5119H3.94247V7.84425H5.91371V5.88318H0Z" fill="white"/>
<path fill-rule="evenodd" clip-rule="evenodd" d="M18.1354 16.473L20.1066 16.473V13.5314H23.6548C23.6548 13.5314 27.2031 13.7276 27.2031 9.80542C27.2031 5.88328 23.6548 6.07938 23.6548 6.07938H18.1354V16.473ZM20.1066 11.7665V7.84435H23.2606C23.2606 7.84435 25.2318 7.84435 25.2318 9.80542C25.2318 11.7665 23.6548 11.7665 23.6548 11.7665H20.1066Z" fill="white"/>
<path fill-rule="evenodd" clip-rule="evenodd" d="M12.8131 5.88318C6.30796 5.88318 6.70221 11.1781 6.70221 11.1781H6.70221C6.70221 11.1781 6.30796 16.4729 12.813 16.4729C15.5728 16.4729 17.1498 14.9041 17.1498 14.9041L15.7699 13.5313C15.7699 13.5313 14.5872 14.5119 12.813 14.5119C8.87057 14.5119 9.06769 11.1781 9.06769 11.1781C9.06769 11.1781 8.87057 7.84425 12.813 7.84425C14.5872 7.84425 15.5728 8.82478 15.5728 8.82478L17.1498 7.45203C17.1498 7.45203 15.5728 5.88318 12.8131 5.88318Z" fill="white"/>
</svg>
