<svg width="135" height="42" viewBox="0 0 135 42" fill="none" xmlns="http://www.w3.org/2000/svg">
<path fill-rule="evenodd" clip-rule="evenodd" d="M128.51 28C122.587 28 120.433 31.7333 120.433 35C120.433 38.2667 122.587 42 128.51 42C132.059 42 134.433 39.6667 134.433 39.6667L132.28 37.8C132.28 37.8 131.203 39.2 128.51 39.2C124.203 39.2 123.664 36.4 123.664 35C123.664 33.6 124.203 30.8 128.51 30.8C131.203 30.8 132.28 32.2 132.28 32.2L134.433 30.3333C134.433 30.3333 132.059 28 128.51 28Z" fill="#ED322C"/>
<path d="M107.008 37.6923C107.008 38.2308 106.487 42 113.786 42C116.914 42 119 40.3846 119 40.3846L117.957 38.7692C117.957 38.7692 116.393 39.8462 113.786 39.8462C111.701 39.8462 110.137 39.3876 110.137 37.6923C110.137 36.077 111.701 36.077 116.913 36.0769H116.914C116.914 35.5385 116.914 35 116.914 33.9231C112.743 33.9231 110.657 33.3846 110.658 31.7692C110.658 31.2308 111.179 30.1538 113.786 30.1538C116.393 30.1538 117.957 31.2308 117.957 31.2308L119 29.077C119 29.077 116.914 28 113.786 28C109.615 27.9999 107.53 29.3914 107.53 31.7693C107.53 33.9231 109.615 34.4615 109.615 34.4615C109.615 34.4615 107.008 35 107.008 37.6923Z" fill="#ED322C"/>
<path fill-rule="evenodd" clip-rule="evenodd" d="M104 23H100V29.0689C98.9031 28.3796 97.5464 28 96 28C91.8 28 89.5 30.8 89.5 35C89.5 39.2 91.8 42 96 42C97.5464 42 98.9031 41.6204 100 40.9311V42H104V23ZM96 31C94 31 93 32.5 93 35C93 37.5 94 39 96 39C98.5 39 100 38 100 35C100 32 98.5 31 96 31Z" fill="#ED322C"/>
<path d="M81 39.5C81 38 82 37 83.5 37C85 37 86 38 86 39.5C86 41 85 42 83.5 42C82 42 81 41 81 39.5Z" fill="#ED322C"/>
<path d="M48.5 7C34 7 18 13.5 18 13.5C18 13.5 33.5 4.10459e-05 56.5 0C72 0 86 9 86 22C86 35 70 41.5 70 41.5C70 41.5 75.5 38 75.5 28C75.5 28 75.5 7 48.5 7Z" fill="#F9AC39"/>
<path d="M81 39.5C81 38 82 37 83.5 37C85 37 86 38 86 39.5C86 41 85 42 83.5 42C82 42 81 41 81 39.5Z" fill="#ED322C"/>
<path d="M0 15V20H5V37H0V42H15V37H10V20H15V15H0Z" fill="#4585A1"/>
<path fill-rule="evenodd" clip-rule="evenodd" d="M46 42L51 42V34.5H60C60 34.5 69 35 69 25C69 15 60 15.5 60 15.5H46V42ZM51 30V20H59C59 20 64 20 64 25C64 30 60 30 60 30H51Z" fill="#4585A1"/>
<path fill-rule="evenodd" clip-rule="evenodd" d="M32.5 15C16 15 17 28.5 17 28.5H17C17 28.5 16 42 32.5 42C39.5 42 43.5 38 43.5 38L40 34.5C40 34.5 37 37 32.5 37C22.5 37 23 28.5 23 28.5H23C23 28.5 22.5 20 32.5 20C37 20 39.5 22.5 39.5 22.5L43.5 19C43.5 19 39.5 15 32.5 15Z" fill="#4585A1"/>
</svg>
