<svg width="200" height="200" viewBox="0 0 200 200" fill="none" xmlns="http://www.w3.org/2000/svg">
<mask id="mask0_93_184" style="mask-type:alpha" maskUnits="userSpaceOnUse" x="0" y="0" width="100" height="100">
<rect width="100" height="100" fill="#D9D9D9"/>
</mask>
<g mask="url(#mask0_93_184)">
<path d="M-50 -0.5C-33.3333 -10.5 -16.6667 -10.5 0 -0.5C16.6667 9.5 33.3333 9.5 50 -0.5C66.6667 -10.5 83.3333 -10.5 100 -0.5C116.667 9.5 133.333 9.5 150 -0.5" stroke="#226F87" stroke-width="8"/>
<path d="M-50 74.5C-33.3333 64.5 -16.6667 64.5 0 74.5C16.6667 84.5 33.3333 84.5 50 74.5C66.6667 64.5 83.3333 64.5 100 74.5C116.667 84.5 133.333 84.5 150 74.5" stroke="#226F87" stroke-width="8"/>
<path d="M-50 24.5C-33.3333 14.5 -16.6667 14.5 0 24.5C16.6667 34.5 33.3333 34.5 50 24.5C66.6667 14.5 83.3333 14.5 100 24.5C116.667 34.5 133.333 34.5 150 24.5" stroke="#226F87" stroke-width="8"/>
<path d="M-50 49.5C-33.3333 39.5 -16.6667 39.5 0 49.5C16.6667 59.5 33.3333 59.5 50 49.5C66.6667 39.5 83.3333 39.5 100 49.5C116.667 59.5 133.333 59.5 150 49.5" stroke="#226F87" stroke-width="8"/>
<path d="M-50 99.5C-33.3333 89.5 -16.6667 89.5 0 99.5C16.6667 109.5 33.3333 109.5 50 99.5C66.6667 89.5 83.3333 89.5 100 99.5C116.667 109.5 133.333 109.5 150 99.5" stroke="#226F87" stroke-width="8"/>
</g>
<mask id="mask1_93_184" style="mask-type:alpha" maskUnits="userSpaceOnUse" x="100" y="0" width="100" height="100">
<rect x="100" width="100" height="100" fill="#D9D9D9"/>
</mask>
<g mask="url(#mask1_93_184)">
<path d="M50 -0.5C66.6667 -10.5 83.3333 -10.5 100 -0.5C116.667 9.5 133.333 9.5 150 -0.5C166.667 -10.5 183.333 -10.5 200 -0.5C216.667 9.5 233.333 9.5 250 -0.5" stroke="#226F87" stroke-width="8"/>
<path d="M50 74.5C66.6667 64.5 83.3333 64.5 100 74.5C116.667 84.5 133.333 84.5 150 74.5C166.667 64.5 183.333 64.5 200 74.5C216.667 84.5 233.333 84.5 250 74.5" stroke="#226F87" stroke-width="8"/>
<path d="M50 24.5C66.6667 14.5 83.3333 14.5 100 24.5C116.667 34.5 133.333 34.5 150 24.5C166.667 14.5 183.333 14.5 200 24.5C216.667 34.5 233.333 34.5 250 24.5" stroke="#226F87" stroke-width="8"/>
<path d="M50 49.5C66.6667 39.5 83.3333 39.5 100 49.5C116.667 59.5 133.333 59.5 150 49.5C166.667 39.5 183.333 39.5 200 49.5C216.667 59.5 233.333 59.5 250 49.5" stroke="#226F87" stroke-width="8"/>
<path d="M50 99.5C66.6667 89.5 83.3333 89.5 100 99.5C116.667 109.5 133.333 109.5 150 99.5C166.667 89.5 183.333 89.5 200 99.5C216.667 109.5 233.333 109.5 250 99.5" stroke="#226F87" stroke-width="8"/>
</g>
<mask id="mask2_93_184" style="mask-type:alpha" maskUnits="userSpaceOnUse" x="0" y="100" width="100" height="100">
<rect y="100" width="100" height="100" fill="#D9D9D9"/>
</mask>
<g mask="url(#mask2_93_184)">
<path d="M-50 99.5C-33.3333 89.5 -16.6667 89.5 0 99.5C16.6667 109.5 33.3333 109.5 50 99.5C66.6667 89.5 83.3333 89.5 100 99.5C116.667 109.5 133.333 109.5 150 99.5" stroke="#226F87" stroke-width="8"/>
<path d="M-50 174.5C-33.3333 164.5 -16.6667 164.5 0 174.5C16.6667 184.5 33.3333 184.5 50 174.5C66.6667 164.5 83.3333 164.5 100 174.5C116.667 184.5 133.333 184.5 150 174.5" stroke="#226F87" stroke-width="8"/>
<path d="M-50 124.5C-33.3333 114.5 -16.6667 114.5 0 124.5C16.6667 134.5 33.3333 134.5 50 124.5C66.6667 114.5 83.3333 114.5 100 124.5C116.667 134.5 133.333 134.5 150 124.5" stroke="#226F87" stroke-width="8"/>
<path d="M-50 149.5C-33.3333 139.5 -16.6667 139.5 0 149.5C16.6667 159.5 33.3333 159.5 50 149.5C66.6667 139.5 83.3333 139.5 100 149.5C116.667 159.5 133.333 159.5 150 149.5" stroke="#226F87" stroke-width="8"/>
<path d="M-50 199.5C-33.3333 189.5 -16.6667 189.5 0 199.5C16.6667 209.5 33.3333 209.5 50 199.5C66.6667 189.5 83.3333 189.5 100 199.5C116.667 209.5 133.333 209.5 150 199.5" stroke="#226F87" stroke-width="8"/>
</g>
<mask id="mask3_93_184" style="mask-type:alpha" maskUnits="userSpaceOnUse" x="100" y="100" width="100" height="100">
<rect x="100" y="100" width="100" height="100" fill="#D9D9D9"/>
</mask>
<g mask="url(#mask3_93_184)">
<path d="M50 99.5C66.6667 89.5 83.3333 89.5 100 99.5C116.667 109.5 133.333 109.5 150 99.5C166.667 89.5 183.333 89.5 200 99.5C216.667 109.5 233.333 109.5 250 99.5" stroke="#226F87" stroke-width="8"/>
<path d="M50 174.5C66.6667 164.5 83.3333 164.5 100 174.5C116.667 184.5 133.333 184.5 150 174.5C166.667 164.5 183.333 164.5 200 174.5C216.667 184.5 233.333 184.5 250 174.5" stroke="#226F87" stroke-width="8"/>
<path d="M50 124.5C66.6667 114.5 83.3333 114.5 100 124.5C116.667 134.5 133.333 134.5 150 124.5C166.667 114.5 183.333 114.5 200 124.5C216.667 134.5 233.333 134.5 250 124.5" stroke="#226F87" stroke-width="8"/>
<path d="M50 149.5C66.6667 139.5 83.3333 139.5 100 149.5C116.667 159.5 133.333 159.5 150 149.5C166.667 139.5 183.333 139.5 200 149.5C216.667 159.5 233.333 159.5 250 149.5" stroke="#226F87" stroke-width="8"/>
<path d="M50 199.5C66.6667 189.5 83.3333 189.5 100 199.5C116.667 209.5 133.333 209.5 150 199.5C166.667 189.5 183.333 189.5 200 199.5C216.667 209.5 233.333 209.5 250 199.5" stroke="#226F87" stroke-width="8"/>
</g>
</svg>
