<svg width="200" height="200" viewBox="0 0 200 200" fill="none" xmlns="http://www.w3.org/2000/svg">
<mask id="mask0_88_200" style="mask-type:alpha" maskUnits="userSpaceOnUse" x="100" y="0" width="100" height="100">
<rect x="100" width="100" height="100" fill="#FFFBEB"/>
</mask>
<g mask="url(#mask0_88_200)">
<path fill-rule="evenodd" clip-rule="evenodd" d="M51.4853 5.15685C58.9467 -2.3045 65.3652 -5 70.8285 -5C76.2918 -5 82.7103 -2.3045 90.1716 5.15685C99.3769 14.3622 109.625 20 120.828 20C132.032 20 142.28 14.3622 151.485 5.15685C158.947 -2.3045 165.365 -5 170.828 -5C176.292 -5 182.71 -2.3045 190.172 5.15685C199.377 14.3622 209.625 20 220.828 20C232.032 20 242.28 14.3622 251.485 5.15685L240.172 -6.15686C232.71 1.3045 226.292 4 220.828 4C215.365 4 208.947 1.3045 201.485 -6.15686C192.28 -15.3622 182.032 -21 170.828 -21C159.625 -21 149.377 -15.3622 140.172 -6.15686C132.71 1.3045 126.292 4 120.828 4C115.365 4 108.947 1.3045 101.485 -6.15686C92.28 -15.3622 82.0319 -21 70.8285 -21C59.6251 -21 49.3769 -15.3622 40.1716 -6.15686L51.4853 5.15685Z" fill="#ED3833"/>
<path fill-rule="evenodd" clip-rule="evenodd" d="M51.4853 105.157C58.9467 97.6955 65.3652 95 70.8285 95C76.2918 95 82.7103 97.6955 90.1716 105.157C99.3769 114.362 109.625 120 120.828 120C132.032 120 142.28 114.362 151.485 105.157C158.947 97.6955 165.365 95 170.828 95C176.292 95 182.71 97.6955 190.172 105.157C199.377 114.362 209.625 120 220.828 120C232.032 120 242.28 114.362 251.485 105.157L240.172 93.8431C232.71 101.305 226.292 104 220.828 104C215.365 104 208.947 101.305 201.485 93.8431C192.28 84.6378 182.032 79 170.828 79C159.625 79 149.377 84.6378 140.172 93.8431C132.71 101.305 126.292 104 120.828 104C115.365 104 108.947 101.305 101.485 93.8431C92.28 84.6378 82.0319 79 70.8285 79C59.6251 79 49.3769 84.6378 40.1716 93.8431L51.4853 105.157Z" fill="#ED3833"/>
<path fill-rule="evenodd" clip-rule="evenodd" d="M55.4853 55.1569C62.9467 47.6955 69.3652 45 74.8285 45C80.2918 45 86.7103 47.6955 94.1716 55.1569C103.377 64.3622 113.625 70 124.828 70C136.032 70 146.28 64.3622 155.485 55.1569C162.947 47.6955 169.365 45 174.828 45C180.292 45 186.71 47.6955 194.172 55.1569C203.377 64.3622 213.625 70 224.828 70C236.032 70 246.28 64.3622 255.485 55.1569L244.172 43.8431C236.71 51.3045 230.292 54 224.828 54C219.365 54 212.947 51.3045 205.485 43.8431C196.28 34.6378 186.032 29 174.828 29C163.625 29 153.377 34.6378 144.172 43.8431C136.71 51.3045 130.292 54 124.828 54C119.365 54 112.947 51.3045 105.485 43.8431C96.28 34.6378 86.0319 29 74.8285 29C63.6251 29 53.3769 34.6378 44.1716 43.8431L55.4853 55.1569Z" fill="#226F87"/>
</g>
<mask id="mask1_88_200" style="mask-type:alpha" maskUnits="userSpaceOnUse" x="0" y="0" width="100" height="100">
<rect width="100" height="100" fill="#FFFBEB"/>
</mask>
<g mask="url(#mask1_88_200)">
<path fill-rule="evenodd" clip-rule="evenodd" d="M-48.5147 5.15685C-41.0533 -2.3045 -34.6348 -5 -29.1715 -5C-23.7082 -5 -17.2897 -2.3045 -9.82837 5.15685C-0.623062 14.3622 9.62509 20 20.8285 20C32.0319 20 42.28 14.3622 51.4853 5.15685C58.9467 -2.3045 65.3652 -5 70.8285 -5C76.2918 -5 82.7103 -2.3045 90.1716 5.15685C99.3769 14.3622 109.625 20 120.828 20C132.032 20 142.28 14.3622 151.485 5.15685L140.172 -6.15685C132.71 1.3045 126.292 4 120.828 4C115.365 4 108.947 1.3045 101.485 -6.15685C92.28 -15.3622 82.0319 -21 70.8285 -21C59.6251 -21 49.3769 -15.3622 40.1716 -6.15685C32.7103 1.3045 26.2918 4 20.8285 4C15.3652 4 8.9467 1.3045 1.48534 -6.15685C-7.71997 -15.3622 -17.9681 -21 -29.1715 -21C-40.3749 -21 -50.6231 -15.3622 -59.8284 -6.15685L-48.5147 5.15685Z" fill="#ED3833"/>
<path fill-rule="evenodd" clip-rule="evenodd" d="M-48.5147 105.157C-41.0533 97.6955 -34.6348 95 -29.1715 95C-23.7082 95 -17.2897 97.6955 -9.82837 105.157C-0.623062 114.362 9.62509 120 20.8285 120C32.0319 120 42.28 114.362 51.4853 105.157C58.9467 97.6955 65.3652 95 70.8285 95C76.2918 95 82.7103 97.6955 90.1716 105.157C99.3769 114.362 109.625 120 120.828 120C132.032 120 142.28 114.362 151.485 105.157L140.172 93.8431C132.71 101.305 126.292 104 120.828 104C115.365 104 108.947 101.305 101.485 93.8431C92.28 84.6378 82.0319 79 70.8285 79C59.6251 79 49.3769 84.6378 40.1716 93.8431C32.7103 101.305 26.2918 104 20.8285 104C15.3652 104 8.9467 101.305 1.48534 93.8431C-7.71997 84.6378 -17.9681 79 -29.1715 79C-40.3749 79 -50.6231 84.6378 -59.8284 93.8431L-48.5147 105.157Z" fill="#ED3833"/>
<path fill-rule="evenodd" clip-rule="evenodd" d="M-44.5147 55.1569C-37.0533 47.6955 -30.6348 45 -25.1715 45C-19.7082 45 -13.2897 47.6955 -5.82837 55.1569C3.37694 64.3622 13.6251 70 24.8285 70C36.0319 70 46.28 64.3622 55.4853 55.1569C62.9467 47.6955 69.3652 45 74.8285 45C80.2918 45 86.7103 47.6955 94.1716 55.1569C103.377 64.3622 113.625 70 124.828 70C136.032 70 146.28 64.3622 155.485 55.1569L144.172 43.8431C136.71 51.3045 130.292 54 124.828 54C119.365 54 112.947 51.3045 105.485 43.8431C96.28 34.6378 86.0319 29 74.8285 29C63.6251 29 53.3769 34.6378 44.1716 43.8431C36.7103 51.3045 30.2918 54 24.8285 54C19.3652 54 12.9467 51.3045 5.48534 43.8431C-3.71997 34.6378 -13.9681 29 -25.1715 29C-36.3749 29 -46.6231 34.6378 -55.8284 43.8431L-44.5147 55.1569Z" fill="#226F87"/>
</g>
<mask id="mask2_88_200" style="mask-type:alpha" maskUnits="userSpaceOnUse" x="100" y="100" width="100" height="100">
<rect x="100" y="100" width="100" height="100" fill="#FFFBEB"/>
</mask>
<g mask="url(#mask2_88_200)">
<path fill-rule="evenodd" clip-rule="evenodd" d="M51.4853 105.157C58.9467 97.6955 65.3652 95 70.8285 95C76.2918 95 82.7103 97.6955 90.1716 105.157C99.3769 114.362 109.625 120 120.828 120C132.032 120 142.28 114.362 151.485 105.157C158.947 97.6955 165.365 95 170.828 95C176.292 95 182.71 97.6955 190.172 105.157C199.377 114.362 209.625 120 220.828 120C232.032 120 242.28 114.362 251.485 105.157L240.172 93.8431C232.71 101.305 226.292 104 220.828 104C215.365 104 208.947 101.305 201.485 93.8431C192.28 84.6378 182.032 79 170.828 79C159.625 79 149.377 84.6378 140.172 93.8431C132.71 101.305 126.292 104 120.828 104C115.365 104 108.947 101.305 101.485 93.8431C92.28 84.6378 82.0319 79 70.8285 79C59.6251 79 49.3769 84.6378 40.1716 93.8431L51.4853 105.157Z" fill="#ED3833"/>
<path fill-rule="evenodd" clip-rule="evenodd" d="M51.4853 205.157C58.9467 197.695 65.3652 195 70.8285 195C76.2918 195 82.7103 197.695 90.1716 205.157C99.3769 214.362 109.625 220 120.828 220C132.032 220 142.28 214.362 151.485 205.157C158.947 197.695 165.365 195 170.828 195C176.292 195 182.71 197.695 190.172 205.157C199.377 214.362 209.625 220 220.828 220C232.032 220 242.28 214.362 251.485 205.157L240.172 193.843C232.71 201.305 226.292 204 220.828 204C215.365 204 208.947 201.305 201.485 193.843C192.28 184.638 182.032 179 170.828 179C159.625 179 149.377 184.638 140.172 193.843C132.71 201.305 126.292 204 120.828 204C115.365 204 108.947 201.305 101.485 193.843C92.28 184.638 82.0319 179 70.8285 179C59.6251 179 49.3769 184.638 40.1716 193.843L51.4853 205.157Z" fill="#ED3833"/>
<path fill-rule="evenodd" clip-rule="evenodd" d="M55.4853 155.157C62.9467 147.695 69.3652 145 74.8285 145C80.2918 145 86.7103 147.695 94.1716 155.157C103.377 164.362 113.625 170 124.828 170C136.032 170 146.28 164.362 155.485 155.157C162.947 147.695 169.365 145 174.828 145C180.292 145 186.71 147.695 194.172 155.157C203.377 164.362 213.625 170 224.828 170C236.032 170 246.28 164.362 255.485 155.157L244.172 143.843C236.71 151.305 230.292 154 224.828 154C219.365 154 212.947 151.305 205.485 143.843C196.28 134.638 186.032 129 174.828 129C163.625 129 153.377 134.638 144.172 143.843C136.71 151.305 130.292 154 124.828 154C119.365 154 112.947 151.305 105.485 143.843C96.28 134.638 86.0319 129 74.8285 129C63.6251 129 53.3769 134.638 44.1716 143.843L55.4853 155.157Z" fill="#226F87"/>
</g>
<mask id="mask3_88_200" style="mask-type:alpha" maskUnits="userSpaceOnUse" x="0" y="100" width="100" height="100">
<rect y="100" width="100" height="100" fill="#FFFBEB"/>
</mask>
<g mask="url(#mask3_88_200)">
<path fill-rule="evenodd" clip-rule="evenodd" d="M-48.5147 105.157C-41.0533 97.6955 -34.6348 95 -29.1715 95C-23.7082 95 -17.2897 97.6955 -9.82837 105.157C-0.623062 114.362 9.62509 120 20.8285 120C32.0319 120 42.28 114.362 51.4853 105.157C58.9467 97.6955 65.3652 95 70.8285 95C76.2918 95 82.7103 97.6955 90.1716 105.157C99.3769 114.362 109.625 120 120.828 120C132.032 120 142.28 114.362 151.485 105.157L140.172 93.8431C132.71 101.305 126.292 104 120.828 104C115.365 104 108.947 101.305 101.485 93.8431C92.28 84.6378 82.0319 79 70.8285 79C59.6251 79 49.3769 84.6378 40.1716 93.8431C32.7103 101.305 26.2918 104 20.8285 104C15.3652 104 8.9467 101.305 1.48534 93.8431C-7.71997 84.6378 -17.9681 79 -29.1715 79C-40.3749 79 -50.6231 84.6378 -59.8284 93.8431L-48.5147 105.157Z" fill="#ED3833"/>
<path fill-rule="evenodd" clip-rule="evenodd" d="M-48.5147 205.157C-41.0533 197.695 -34.6348 195 -29.1715 195C-23.7082 195 -17.2897 197.695 -9.82837 205.157C-0.623062 214.362 9.62509 220 20.8285 220C32.0319 220 42.28 214.362 51.4853 205.157C58.9467 197.695 65.3652 195 70.8285 195C76.2918 195 82.7103 197.695 90.1716 205.157C99.3769 214.362 109.625 220 120.828 220C132.032 220 142.28 214.362 151.485 205.157L140.172 193.843C132.71 201.305 126.292 204 120.828 204C115.365 204 108.947 201.305 101.485 193.843C92.28 184.638 82.0319 179 70.8285 179C59.6251 179 49.3769 184.638 40.1716 193.843C32.7103 201.305 26.2918 204 20.8285 204C15.3652 204 8.9467 201.305 1.48534 193.843C-7.71997 184.638 -17.9681 179 -29.1715 179C-40.3749 179 -50.6231 184.638 -59.8284 193.843L-48.5147 205.157Z" fill="#ED3833"/>
<path fill-rule="evenodd" clip-rule="evenodd" d="M-44.5147 155.157C-37.0533 147.695 -30.6348 145 -25.1715 145C-19.7082 145 -13.2897 147.695 -5.82837 155.157C3.37694 164.362 13.6251 170 24.8285 170C36.0319 170 46.28 164.362 55.4853 155.157C62.9467 147.695 69.3652 145 74.8285 145C80.2918 145 86.7103 147.695 94.1716 155.157C103.377 164.362 113.625 170 124.828 170C136.032 170 146.28 164.362 155.485 155.157L144.172 143.843C136.71 151.305 130.292 154 124.828 154C119.365 154 112.947 151.305 105.485 143.843C96.28 134.638 86.0319 129 74.8285 129C63.6251 129 53.3769 134.638 44.1716 143.843C36.7103 151.305 30.2918 154 24.8285 154C19.3652 154 12.9467 151.305 5.48534 143.843C-3.71997 134.638 -13.9681 129 -25.1715 129C-36.3749 129 -46.6231 134.638 -55.8284 143.843L-44.5147 155.157Z" fill="#226F87"/>
</g>
</svg>
