<svg width="200" height="200" viewBox="0 0 200 200" fill="none" xmlns="http://www.w3.org/2000/svg">
<rect width="100" height="100" fill="#FFFBEB"/>
<circle cx="50" cy="50" r="32" stroke="#C9DDDE" stroke-width="16"/>
<rect x="100" width="100" height="100" fill="#FFFBEB"/>
<path fill-rule="evenodd" clip-rule="evenodd" d="M121.716 66.9705C118.592 70.0947 118.592 75.1601 121.716 78.2842C124.84 81.4084 129.905 81.4084 133.029 78.2842L150 61.3137L166.971 78.2842C170.095 81.4084 175.16 81.4084 178.284 78.2842C181.408 75.1601 181.408 70.0947 178.284 66.9705L161.314 50L178.284 33.0294C181.408 29.9052 181.408 24.8399 178.284 21.7157C175.16 18.5915 170.095 18.5915 166.971 21.7157L150 38.6862L133.029 21.7157C129.905 18.5915 124.84 18.5915 121.716 21.7157C118.592 24.8399 118.592 29.9052 121.716 33.0294L138.686 50L121.716 66.9705Z" fill="#FCD392"/>
<rect width="100" height="100" transform="matrix(-1 0 0 1 200 100)" fill="#FFFBEB"/>
<circle cx="40" cy="40" r="32" transform="matrix(-1 0 0 1 190 110)" stroke="#C9DDDE" stroke-width="16"/>
<rect width="100" height="100" transform="matrix(-1 0 0 1 100 100)" fill="#FFFBEB"/>
<path fill-rule="evenodd" clip-rule="evenodd" d="M78.2843 166.971C81.4085 170.095 81.4085 175.16 78.2843 178.284C75.1601 181.408 70.0948 181.408 66.9706 178.284L50 161.314L33.0294 178.284C29.9052 181.408 24.8399 181.408 21.7157 178.284C18.5915 175.16 18.5915 170.095 21.7157 166.971L38.6863 150L21.7158 133.029C18.5916 129.905 18.5916 124.84 21.7158 121.716C24.8399 118.592 29.9053 118.592 33.0295 121.716L50 138.686L66.9705 121.716C70.0947 118.592 75.1601 118.592 78.2842 121.716C81.4084 124.84 81.4084 129.905 78.2842 133.029L61.3137 150L78.2843 166.971Z" fill="#FCD392"/>
</svg>
