<svg width="200" height="200" viewBox="0 0 200 200" fill="none" xmlns="http://www.w3.org/2000/svg">
<mask id="mask0_93_256" style="mask-type:alpha" maskUnits="userSpaceOnUse" x="0" y="0" width="100" height="100">
<rect width="100" height="100" fill="#D9D9D9"/>
</mask>
<g mask="url(#mask0_93_256)">
<path d="M-50 -6C-33.3333 10.6667 -16.6667 10.6667 0 -6C16.6667 10.6667 33.3333 10.6667 50 -6C66.6667 10.6667 83.3333 10.6667 100 -6C116.667 10.6667 133.333 10.6667 150 -6" stroke="#226F87" stroke-width="8"/>
<path d="M-50 69C-33.3333 85.6667 -16.6667 85.6667 0 69C16.6667 85.6667 33.3333 85.6667 50 69C66.6667 85.6667 83.3333 85.6667 100 69C116.667 85.6667 133.333 85.6667 150 69" stroke="#226F87" stroke-width="8"/>
<path d="M-50 19C-33.3333 35.6667 -16.6667 35.6667 0 19C16.6667 35.6667 33.3333 35.6667 50 19C66.6667 35.6667 83.3333 35.6667 100 19C116.667 35.6667 133.333 35.6667 150 19" stroke="#226F87" stroke-width="8"/>
<path d="M-50 44C-33.3333 60.6667 -16.6667 60.6667 0 44C16.6667 60.6667 33.3333 60.6667 50 44C66.6667 60.6667 83.3333 60.6667 100 44C116.667 60.6667 133.333 60.6667 150 44" stroke="#226F87" stroke-width="8"/>
<path d="M-50 94C-33.3333 110.667 -16.6667 110.667 0 94C16.6667 110.667 33.3333 110.667 50 94C66.6667 110.667 83.3333 110.667 100 94C116.667 110.667 133.333 110.667 150 94" stroke="#226F87" stroke-width="8"/>
</g>
<mask id="mask1_93_256" style="mask-type:alpha" maskUnits="userSpaceOnUse" x="100" y="0" width="100" height="100">
<rect x="100" width="100" height="100" fill="#D9D9D9"/>
</mask>
<g mask="url(#mask1_93_256)">
<path d="M50 -6C66.6667 10.6667 83.3333 10.6667 100 -6C116.667 10.6667 133.333 10.6667 150 -6C166.667 10.6667 183.333 10.6667 200 -6C216.667 10.6667 233.333 10.6667 250 -6" stroke="#226F87" stroke-width="8"/>
<path d="M50 69C66.6667 85.6667 83.3333 85.6667 100 69C116.667 85.6667 133.333 85.6667 150 69C166.667 85.6667 183.333 85.6667 200 69C216.667 85.6667 233.333 85.6667 250 69" stroke="#226F87" stroke-width="8"/>
<path d="M50 19C66.6667 35.6667 83.3333 35.6667 100 19C116.667 35.6667 133.333 35.6667 150 19C166.667 35.6667 183.333 35.6667 200 19C216.667 35.6667 233.333 35.6667 250 19" stroke="#226F87" stroke-width="8"/>
<path d="M50 44C66.6667 60.6667 83.3333 60.6667 100 44C116.667 60.6667 133.333 60.6667 150 44C166.667 60.6667 183.333 60.6667 200 44C216.667 60.6667 233.333 60.6667 250 44" stroke="#226F87" stroke-width="8"/>
<path d="M50 94C66.6667 110.667 83.3333 110.667 100 94C116.667 110.667 133.333 110.667 150 94C166.667 110.667 183.333 110.667 200 94C216.667 110.667 233.333 110.667 250 94" stroke="#226F87" stroke-width="8"/>
</g>
<mask id="mask2_93_256" style="mask-type:alpha" maskUnits="userSpaceOnUse" x="0" y="100" width="100" height="100">
<rect y="100" width="100" height="100" fill="#D9D9D9"/>
</mask>
<g mask="url(#mask2_93_256)">
<path d="M-50 94C-33.3333 110.667 -16.6667 110.667 0 94C16.6667 110.667 33.3333 110.667 50 94C66.6667 110.667 83.3333 110.667 100 94C116.667 110.667 133.333 110.667 150 94" stroke="#226F87" stroke-width="8"/>
<path d="M-50 169C-33.3333 185.667 -16.6667 185.667 0 169C16.6667 185.667 33.3333 185.667 50 169C66.6667 185.667 83.3333 185.667 100 169C116.667 185.667 133.333 185.667 150 169" stroke="#226F87" stroke-width="8"/>
<path d="M-50 119C-33.3333 135.667 -16.6667 135.667 0 119C16.6667 135.667 33.3333 135.667 50 119C66.6667 135.667 83.3333 135.667 100 119C116.667 135.667 133.333 135.667 150 119" stroke="#226F87" stroke-width="8"/>
<path d="M-50 144C-33.3333 160.667 -16.6667 160.667 0 144C16.6667 160.667 33.3333 160.667 50 144C66.6667 160.667 83.3333 160.667 100 144C116.667 160.667 133.333 160.667 150 144" stroke="#226F87" stroke-width="8"/>
<path d="M-50 194C-33.3333 210.667 -16.6667 210.667 0 194C16.6667 210.667 33.3333 210.667 50 194C66.6667 210.667 83.3333 210.667 100 194C116.667 210.667 133.333 210.667 150 194" stroke="#226F87" stroke-width="8"/>
</g>
<mask id="mask3_93_256" style="mask-type:alpha" maskUnits="userSpaceOnUse" x="100" y="100" width="100" height="100">
<rect x="100" y="100" width="100" height="100" fill="#D9D9D9"/>
</mask>
<g mask="url(#mask3_93_256)">
<path d="M50 94C66.6667 110.667 83.3333 110.667 100 94C116.667 110.667 133.333 110.667 150 94C166.667 110.667 183.333 110.667 200 94C216.667 110.667 233.333 110.667 250 94" stroke="#226F87" stroke-width="8"/>
<path d="M50 169C66.6667 185.667 83.3333 185.667 100 169C116.667 185.667 133.333 185.667 150 169C166.667 185.667 183.333 185.667 200 169C216.667 185.667 233.333 185.667 250 169" stroke="#226F87" stroke-width="8"/>
<path d="M50 119C66.6667 135.667 83.3333 135.667 100 119C116.667 135.667 133.333 135.667 150 119C166.667 135.667 183.333 135.667 200 119C216.667 135.667 233.333 135.667 250 119" stroke="#226F87" stroke-width="8"/>
<path d="M50 144C66.6667 160.667 83.3333 160.667 100 144C116.667 160.667 133.333 160.667 150 144C166.667 160.667 183.333 160.667 200 144C216.667 160.667 233.333 160.667 250 144" stroke="#226F87" stroke-width="8"/>
<path d="M50 194C66.6667 210.667 83.3333 210.667 100 194C116.667 210.667 133.333 210.667 150 194C166.667 210.667 183.333 210.667 200 194C216.667 210.667 233.333 210.667 250 194" stroke="#226F87" stroke-width="8"/>
</g>
</svg>
